<?xml version="1.0" standalone="no"?><!DOCTYPE svg PUBLIC "-//W3C//DTD SVG 1.1//EN" "http://www.w3.org/Graphics/SVG/1.1/DTD/svg11.dtd"><svg class="icon" width="200px" height="200.00px" viewBox="0 0 1024 1024" version="1.1" xmlns="http://www.w3.org/2000/svg"><path fill="#333333" d="M905.173333 312.746667L655.786667 36.906667a39.253333 39.253333 0 0 0-4.906667-5.333334L641.493333 21.333333H188.373333A81.706667 81.706667 0 0 0 106.666667 101.973333v820.053334A81.706667 81.706667 0 0 0 188.373333 1002.666667h647.253334A81.706667 81.706667 0 0 0 917.333333 922.026667V341.333333a35.626667 35.626667 0 0 0-12.373333-26.88zM662.613333 154.026667l135.04 149.333333h-128a8.106667 8.106667 0 0 1-8.106666-8.106667z m171.946667 775.893333H188.586667a8.106667 8.106667 0 0 1-8.106667-7.893333V101.973333a8.106667 8.106667 0 0 1 8.106667-7.893333h400.426666v200.96a81.28 81.28 0 0 0 81.706667 80.64h171.946667V921.6a7.893333 7.893333 0 0 1-7.04 7.893333z"  /><path fill="#333333" d="M727.04 493.653333H296.96a38.186667 38.186667 0 0 0 0 76.16h430.08a38.613333 38.613333 0 0 0 35.84-40.96 38.186667 38.186667 0 0 0-35.84-35.2z m0 193.28H296.96a38.186667 38.186667 0 0 0 0 76.16h430.08a38.613333 38.613333 0 0 0 35.84-40.96 38.186667 38.186667 0 0 0-35.84-35.2z"  /></svg>