<?xml version="1.0" standalone="no"?><!DOCTYPE svg PUBLIC "-//W3C//DTD SVG 1.1//EN" "http://www.w3.org/Graphics/SVG/1.1/DTD/svg11.dtd"><svg class="icon" width="200px" height="200.00px" viewBox="0 0 1024 1024" version="1.1" xmlns="http://www.w3.org/2000/svg"><path fill="#333333" d="M449.706667 536.96H101.333333A37.333333 37.333333 0 0 0 64 574.293333v348.373334A37.333333 37.333333 0 0 0 101.333333 960h348.373334a37.333333 37.333333 0 0 0 37.333333-37.333333V574.293333a37.333333 37.333333 0 0 0-37.333333-37.333333zM412.373333 885.333333H138.666667V611.626667h273.706666zM922.666667 536.96H574.293333a37.333333 37.333333 0 0 0-37.333333 37.333333v348.373334A37.333333 37.333333 0 0 0 574.293333 960h348.373334A37.333333 37.333333 0 0 0 960 922.666667V574.293333a37.333333 37.333333 0 0 0-37.333333-37.333333zM885.333333 885.333333H611.626667V611.626667H885.333333zM922.666667 64H574.293333a37.333333 37.333333 0 0 0-37.333333 37.333333v348.373334a37.333333 37.333333 0 0 0 37.333333 37.333333h348.373334A37.333333 37.333333 0 0 0 960 449.706667V101.333333A37.333333 37.333333 0 0 0 922.666667 64zM885.333333 412.373333H611.626667V138.666667H885.333333zM449.706667 64H101.333333A37.333333 37.333333 0 0 0 64 101.333333v348.373334a37.333333 37.333333 0 0 0 37.333333 37.333333h348.373334a37.333333 37.333333 0 0 0 37.333333-37.333333V101.333333A37.333333 37.333333 0 0 0 449.706667 64z m-37.333334 348.373333H138.666667V138.666667h273.706666z" /></svg>