<?xml version="1.0" standalone="no"?><!DOCTYPE svg PUBLIC "-//W3C//DTD SVG 1.1//EN" "http://www.w3.org/Graphics/SVG/1.1/DTD/svg11.dtd"><svg class="icon" width="200px" height="200.00px" viewBox="0 0 1024 1024" version="1.1" xmlns="http://www.w3.org/2000/svg"><path fill="#333333" d="M922.666667 64H101.333333A37.333333 37.333333 0 0 0 64 101.333333v821.333334A37.333333 37.333333 0 0 0 101.333333 960h821.333334A37.333333 37.333333 0 0 0 960 922.666667V101.333333A37.333333 37.333333 0 0 0 922.666667 64zM885.333333 885.333333h-746.666666v-746.666666h746.666666z"  /><path fill="#333333" d="M214.4 543.573333h317.653333a108.8 108.8 0 0 0 208.64 0H810.666667a31.146667 31.146667 0 1 0 0-62.293333h-69.546667a109.013333 109.013333 0 0 0-209.28 0H214.4a31.146667 31.146667 0 0 0 0 62.293333z m421.973333-78.933333A47.36 47.36 0 1 1 589.226667 512a47.36 47.36 0 0 1 47.146666-47.36z"  /><path fill="#333333" d="M214.4 744.32h74.453333a108.8 108.8 0 0 0 208.853334 0H810.666667A31.146667 31.146667 0 0 0 810.666667 682.666667H497.706667a108.8 108.8 0 0 0-208.853334 0h-74.453333a31.146667 31.146667 0 1 0 0 62.293333z m178.773333-78.506667a47.36 47.36 0 1 1-47.146666 47.36 47.36 47.36 0 0 1 47.146666-47.36zM214.4 341.333333h74.453333a108.8 108.8 0 0 0 208.853334 0H810.666667a31.146667 31.146667 0 1 0 0-62.293333H497.706667a108.8 108.8 0 0 0-208.853334 0h-74.453333a31.146667 31.146667 0 0 0 0 62.293333z m178.773333-78.506666a47.36 47.36 0 1 1-47.146666 47.36 47.36 47.36 0 0 1 47.146666-46.72z"  /></svg>