<?xml version="1.0" standalone="no"?><!DOCTYPE svg PUBLIC "-//W3C//DTD SVG 1.1//EN" "http://www.w3.org/Graphics/SVG/1.1/DTD/svg11.dtd"><svg class="icon" width="200px" height="200.00px" viewBox="0 0 1024 1024" version="1.1" xmlns="http://www.w3.org/2000/svg"><path fill="#333333" d="M922.666667 64H101.333333A38.4 38.4 0 0 0 64 103.466667v671.36a38.4 38.4 0 0 0 37.333333 39.466666h821.333334A38.4 38.4 0 0 0 960 774.826667V103.466667A38.4 38.4 0 0 0 922.666667 64zM885.333333 735.36h-746.666666V143.146667h746.666666zM762.026667 880.853333H261.973333a39.68 39.68 0 0 0 0 79.146667h500.053334a39.68 39.68 0 0 0 0-79.146667z"  /><path fill="#333333" d="M310.826667 531.626667a38.613333 38.613333 0 0 0 37.333333-39.68V256a37.333333 37.333333 0 1 0-74.666667 0v235.946667a38.4 38.4 0 0 0 37.333334 39.68zM310.826667 679.04a52.693333 52.693333 0 1 0-49.92-52.693333 51.413333 51.413333 0 0 0 49.92 52.693333zM526.506667 307.413333h224a39.68 39.68 0 0 0 0-79.146666h-224a39.68 39.68 0 0 0 0 79.146666zM526.506667 480h224a39.68 39.68 0 0 0 0-79.146667h-224a39.68 39.68 0 0 0 0 79.146667zM526.506667 650.026667h224a39.68 39.68 0 0 0 0-79.146667h-224a39.68 39.68 0 0 0 0 79.146667z"  /></svg>