<?xml version="1.0" standalone="no"?><!DOCTYPE svg PUBLIC "-//W3C//DTD SVG 1.1//EN" "http://www.w3.org/Graphics/SVG/1.1/DTD/svg11.dtd"><svg class="icon" width="200px" height="200.00px" viewBox="0 0 1024 1024" version="1.1" xmlns="http://www.w3.org/2000/svg"><path fill="#333333" d="M457.386667 1002.666667a36.906667 36.906667 0 0 1-36.693334-36.693334V58.24a36.693333 36.693333 0 0 1 54.613334-32.213333L696.106667 149.333333a36.693333 36.693333 0 0 1 18.986666 32.213334v147.2a36.906667 36.906667 0 0 1-73.6 0V202.453333l-147.2-81.706666v782.506666l147.2-81.706666v-125.44a36.906667 36.906667 0 1 1 73.6 0v147.2a36.48 36.48 0 0 1-18.986666 32l-220.8 122.666666a35.626667 35.626667 0 0 1-17.92 4.693334zM254.08 605.226667a61.44 61.44 0 0 1 95.573333 50.133333 61.44 61.44 0 1 1-95.573333-50.133333z"  /><path fill="#333333" d="M708.266667 501.76a49.066667 49.066667 0 0 1 0 98.133333 49.066667 49.066667 0 0 1-49.066667-49.066666 49.066667 49.066667 0 0 1 49.066667-49.066667zM782.506667 387.84a48.426667 48.426667 0 0 1 66.346666 66.56 50.986667 50.986667 0 0 1-66.346666 19.626667 49.92 49.92 0 0 1-25.173334-42.666667 49.28 49.28 0 0 1 25.173334-42.666667zM832 584.106667a48.426667 48.426667 0 0 1 66.346667 66.56 50.986667 50.986667 0 0 1-66.346667 19.626666 49.92 49.92 0 0 1-25.173333-42.666666 49.28 49.28 0 0 1 25.173333-42.666667zM257.28 396.8A61.44 61.44 0 1 1 234.666667 480.64a61.44 61.44 0 0 1 22.4-83.84zM257.28 128A61.226667 61.226667 0 1 1 234.666667 211.413333 61.44 61.44 0 0 1 257.28 128zM199.68 765.44a49.066667 49.066667 0 1 1-49.066667 49.066667 49.066667 49.066667 0 0 1 49.066667-49.066667zM168.533333 244.48a49.066667 49.066667 0 1 1-49.066666 48.853333 48.853333 48.853333 0 0 1 49.066666-48.853333z"  /></svg>