<?xml version="1.0" standalone="no"?><!DOCTYPE svg PUBLIC "-//W3C//DTD SVG 1.1//EN" "http://www.w3.org/Graphics/SVG/1.1/DTD/svg11.dtd"><svg class="icon" width="200px" height="200.00px" viewBox="0 0 1024 1024" version="1.1" xmlns="http://www.w3.org/2000/svg"><path fill="#333333" d="M922.666667 163.413333H598.826667a37.333333 37.333333 0 0 1 0-74.666666h323.84a37.333333 37.333333 0 0 1 0 74.666666zM922.666667 437.12H598.826667a37.333333 37.333333 0 0 1 0-74.666667h323.84a37.333333 37.333333 0 0 1 0 74.666667zM922.666667 661.333333H598.826667a37.333333 37.333333 0 0 1 0-74.666666h323.84a37.333333 37.333333 0 0 1 0 74.666666zM922.666667 934.826667H598.826667a37.333333 37.333333 0 0 1 0-74.666667h323.84a37.333333 37.333333 0 0 1 0 74.666667zM424.96 462.08H101.333333A37.333333 37.333333 0 0 1 64 424.746667V101.12A37.333333 37.333333 0 0 1 101.333333 64h323.626667a37.333333 37.333333 0 0 1 37.333333 37.333333v323.413334a37.546667 37.546667 0 0 1-37.333333 37.333333zM138.666667 387.413333h248.96V138.453333H138.666667zM424.96 960H101.333333A37.333333 37.333333 0 0 1 64 922.453333V598.826667a37.333333 37.333333 0 0 1 37.333333-37.333334h323.626667a37.546667 37.546667 0 0 1 37.333333 37.333334v323.626666A37.333333 37.333333 0 0 1 424.96 960zM138.666667 885.12h248.96V636.16H138.666667z" /></svg>