<?xml version="1.0" standalone="no"?><!DOCTYPE svg PUBLIC "-//W3C//DTD SVG 1.1//EN" "http://www.w3.org/Graphics/SVG/1.1/DTD/svg11.dtd"><svg class="icon" width="200px" height="200.00px" viewBox="0 0 1024 1024" version="1.1" xmlns="http://www.w3.org/2000/svg"><path fill="#333333" d="M823.04 64H151.04a37.333333 37.333333 0 0 0-37.333333 37.333333v182.613334h-12.373334a37.333333 37.333333 0 0 0 0 74.666666h12.373334v257.066667h-12.373334a37.333333 37.333333 0 0 0 0 74.666667h12.373334v182.613333a37.546667 37.546667 0 0 0 37.333333 37.333333h311.253333a37.333333 37.333333 0 0 0 0-74.666666H188.373333v-145.28h12.586667a37.333333 37.333333 0 1 0 0-74.666667h-12.586667v-256h12.586667a37.333333 37.333333 0 1 0 0-74.666667h-12.586667V138.666667h597.333334v336.64a37.333333 37.333333 0 0 0 74.666666 0V101.333333A37.333333 37.333333 0 0 0 823.04 64z"  /><path fill="#333333" d="M648.96 288H325.333333a37.333333 37.333333 0 0 0 0 74.666667h323.626667a37.333333 37.333333 0 0 0 0-74.666667zM599.04 450.986667H325.333333a37.333333 37.333333 0 0 0 0 74.666666h273.706667a37.333333 37.333333 0 0 0 0-74.666666zM499.626667 611.626667h-174.293334a37.333333 37.333333 0 0 0 0 74.666666h174.293334a37.333333 37.333333 0 0 0 0-74.666666zM599.04 711.04a37.546667 37.546667 0 0 0-37.333333 37.333333v174.293334a37.333333 37.333333 0 0 0 74.666666 0v-174.293334a37.333333 37.333333 0 0 0-37.333333-37.333333zM762.026667 561.706667A37.546667 37.546667 0 0 0 725.333333 599.04v323.626667a37.333333 37.333333 0 0 0 74.666667 0V599.04a37.333333 37.333333 0 0 0-37.973333-37.333333zM922.666667 661.333333a37.333333 37.333333 0 0 0-37.333334 37.333334v224a37.333333 37.333333 0 0 0 74.666667 0v-224A37.333333 37.333333 0 0 0 922.666667 661.333333z"  /></svg>