<?xml version="1.0" standalone="no"?><!DOCTYPE svg PUBLIC "-//W3C//DTD SVG 1.1//EN" "http://www.w3.org/Graphics/SVG/1.1/DTD/svg11.dtd"><svg class="icon" width="200px" height="200.00px" viewBox="0 0 1024 1024" version="1.1" xmlns="http://www.w3.org/2000/svg"><path fill="#333333" d="M462.293333 835.626667H188.373333v-145.28h12.586667a37.333333 37.333333 0 1 0 0-74.666667h-12.586667v-256h12.586667a37.333333 37.333333 0 1 0 0-74.666667h-12.586667V138.666667h597.333334v136.96a37.333333 37.333333 0 1 0 74.666666 0V101.333333A37.333333 37.333333 0 0 0 823.04 64H151.04a37.333333 37.333333 0 0 0-37.333333 37.333333v182.613334h-12.373334a37.333333 37.333333 0 0 0 0 74.666666h12.373334v257.066667h-12.373334a37.333333 37.333333 0 0 0 0 74.666667h12.373334v182.613333a37.546667 37.546667 0 0 0 37.333333 37.333333h311.253333a37.333333 37.333333 0 0 0 0-74.666666z"  /><path fill="#333333" d="M686.293333 325.333333a37.333333 37.333333 0 0 0-37.333333-37.333333H325.333333a37.333333 37.333333 0 0 0 0 74.666667h323.626667a37.333333 37.333333 0 0 0 37.333333-37.333334zM487.04 488.32a37.333333 37.333333 0 0 0-37.333333-37.333333h-124.373334a37.333333 37.333333 0 0 0 0 74.666666h124.373334a37.333333 37.333333 0 0 0 37.333333-37.333333zM325.333333 611.626667a37.333333 37.333333 0 0 0 0 74.666666h74.666667a37.333333 37.333333 0 0 0 0-74.666666zM645.12 519.68v-69.973333a37.333333 37.333333 0 0 0-74.666667 0v69.973333a114.986667 114.986667 0 0 0 0 218.026667v184.96a37.333333 37.333333 0 0 0 74.666667 0v-184.96a114.986667 114.986667 0 0 0 0-218.026667z m-37.333333 149.333333a41.173333 41.173333 0 1 1 41.173333-40.96 40.96 40.96 0 0 1-41.173333 41.6z"  /><path fill="#333333" d="M960 743.68a115.626667 115.626667 0 0 0-78.506667-109.013333v-184.96a37.333333 37.333333 0 0 0-74.666666 0v184.96a114.986667 114.986667 0 0 0 0 218.026666v69.973334a37.333333 37.333333 0 0 0 74.666666 0V853.333333A115.2 115.2 0 0 0 960 743.68z m-115.84 41.173333a41.173333 41.173333 0 1 1 41.173333-41.173333 40.96 40.96 0 0 1-41.173333 41.173333z"  /></svg>