<?xml version="1.0" standalone="no"?><!DOCTYPE svg PUBLIC "-//W3C//DTD SVG 1.1//EN" "http://www.w3.org/Graphics/SVG/1.1/DTD/svg11.dtd"><svg class="icon" width="200px" height="200.00px" viewBox="0 0 1024 1024" version="1.1" xmlns="http://www.w3.org/2000/svg"><path fill="#333333" d="M512 549.333333a37.546667 37.546667 0 0 1-19.413333-5.333333L256 400.853333a37.546667 37.546667 0 0 1 0-64l236.373333-142.933333a37.333333 37.333333 0 0 1 38.826667 0l236.8 142.933333a37.546667 37.546667 0 0 1 0 64L531.413333 544a37.546667 37.546667 0 0 1-19.413333 5.333333z m-164.266667-180.48L512 469.333333l164.266667-99.413333-164.266667-100.48z"  /><path fill="#333333" d="M512 692.48a39.68 39.68 0 0 1-19.413333-5.333333L256 544a37.333333 37.333333 0 0 1 38.613333-64L512 611.413333l217.173333-131.413333a37.333333 37.333333 0 0 1 38.613334 64l-236.373334 143.146667a39.68 39.68 0 0 1-19.413333 5.333333z"  /><path fill="#333333" d="M512 835.626667a37.76 37.76 0 0 1-19.413333-5.546667L256 687.146667a37.333333 37.333333 0 0 1 38.613333-64L512 754.56l217.173333-131.413333a37.333333 37.333333 0 0 1 38.613334 64l-236.373334 142.933333a37.76 37.76 0 0 1-19.413333 5.546667z"  /><path fill="#333333" d="M922.666667 960H101.333333A37.333333 37.333333 0 0 1 64 922.666667V101.333333A37.333333 37.333333 0 0 1 101.333333 64h821.333334A37.333333 37.333333 0 0 1 960 101.333333v821.333334A37.333333 37.333333 0 0 1 922.666667 960zM138.666667 885.333333h746.666666v-746.666666h-746.666666z"  /></svg>