<?xml version="1.0" standalone="no"?><!DOCTYPE svg PUBLIC "-//W3C//DTD SVG 1.1//EN" "http://www.w3.org/Graphics/SVG/1.1/DTD/svg11.dtd"><svg class="icon" width="200px" height="200.00px" viewBox="0 0 1024 1024" version="1.1" xmlns="http://www.w3.org/2000/svg"><path fill="#333333" d="M922.666667 885.333333H138.666667V101.333333a37.333333 37.333333 0 0 0-74.666667 0v821.333334A37.333333 37.333333 0 0 0 101.333333 960h821.333334a37.333333 37.333333 0 0 0 0-74.666667z"  /><path fill="#333333" d="M268.8 504.106667a37.76 37.76 0 0 0 26.453333-10.88l202.24-202.453334 96.853334 96.853334a37.333333 37.333333 0 0 0 52.693333 0L875.946667 158.933333A37.333333 37.333333 0 1 0 823.04 106.666667l-202.24 201.813333-96.853333-96.853333a37.546667 37.546667 0 0 0-52.906667 0L242.346667 440.533333a37.333333 37.333333 0 0 0 26.453333 64z"  /><path fill="#333333" d="M441.386667 443.52V768a37.333333 37.333333 0 0 0 74.666666 0V443.52a37.333333 37.333333 0 0 0-74.666666 0zM604.373333 592.853333V768a37.333333 37.333333 0 0 0 74.666667 0v-175.146667a37.333333 37.333333 0 0 0-74.666667 0zM765.013333 443.52V768a37.333333 37.333333 0 0 0 74.666667 0V443.52a37.333333 37.333333 0 0 0-74.666667 0zM278.613333 592.853333V768a37.333333 37.333333 0 1 0 74.666667 0v-175.146667a37.333333 37.333333 0 1 0-74.666667 0z"  /></svg>