<?xml version="1.0" standalone="no"?><!DOCTYPE svg PUBLIC "-//W3C//DTD SVG 1.1//EN" "http://www.w3.org/Graphics/SVG/1.1/DTD/svg11.dtd"><svg class="icon" width="200px" height="200.00px" viewBox="0 0 1024 1024" version="1.1" xmlns="http://www.w3.org/2000/svg"><path fill="#333333" d="M922.666667 960H101.333333A37.333333 37.333333 0 0 1 64 922.666667V101.333333A37.333333 37.333333 0 0 1 101.333333 64h821.333334A37.333333 37.333333 0 0 1 960 101.333333v821.333334A37.333333 37.333333 0 0 1 922.666667 960zM138.666667 885.333333h746.666666v-746.666666h-746.666666z"  /><path fill="#333333" d="M792.32 398.506667H545.92a37.333333 37.333333 0 1 1 0-74.666667h246.4a37.333333 37.333333 0 0 1 0 74.666667zM792.32 690.56H545.92a37.333333 37.333333 0 0 1 0-74.666667h246.4a37.333333 37.333333 0 1 1 0 74.666667zM318.293333 768a114.346667 114.346667 0 1 1 114.346667-114.346667A114.346667 114.346667 0 0 1 318.293333 768z m0-154.026667a39.68 39.68 0 1 0 39.68 39.68 39.68 39.68 0 0 0-39.68-40.106666zM291.626667 446.506667a36.906667 36.906667 0 0 1-26.24-10.88L204.8 375.466667a37.333333 37.333333 0 1 1 52.48-52.906667l34.56 34.133333 87.68-85.333333a37.333333 37.333333 0 1 1 52.053333 53.333333l-113.92 110.933334a37.333333 37.333333 0 0 1-26.026666 10.88z"  /></svg>