<?xml version="1.0" standalone="no"?><!DOCTYPE svg PUBLIC "-//W3C//DTD SVG 1.1//EN" "http://www.w3.org/Graphics/SVG/1.1/DTD/svg11.dtd"><svg class="icon" width="200px" height="200.00px" viewBox="0 0 1024 1024" version="1.1" xmlns="http://www.w3.org/2000/svg"><path fill="#333333" d="M922.666667 64H101.333333A37.333333 37.333333 0 0 0 64 101.333333v821.333334A37.333333 37.333333 0 0 0 101.333333 960h821.333334A37.333333 37.333333 0 0 0 960 922.666667V101.333333A37.333333 37.333333 0 0 0 922.666667 64zM343.68 881.92a170.666667 170.666667 0 0 1 2.133333-27.52 36.693333 36.693333 0 0 0-13.866666-35.413333L298.666667 792.32 323.626667 746.666667l36.906666 15.146666a37.333333 37.333333 0 0 0 39.253334-7.04 170.666667 170.666667 0 0 1 53.546666-33.066666 38.186667 38.186667 0 0 0 23.466667-29.866667l5.973333-44.16h52.266667l5.546667 39.893333a37.12 37.12 0 0 0 25.813333 30.506667 173.226667 173.226667 0 0 1 55.68 29.653333 37.333333 37.333333 0 0 0 37.333333 5.12l40.96-16.853333 26.026667 45.226667-30.933333 24.533333a37.12 37.12 0 0 0-12.8 38.186667 170.666667 170.666667 0 0 1 4.266666 37.973333v3.413333h-37.546666a32 32 0 0 0 0-4.693333 134.826667 134.826667 0 0 0-269.653334 0 32 32 0 0 0 0 4.693333h-35.84a17.28 17.28 0 0 1-0.213333-3.413333zM576 885.333333h-121.6a32 32 0 0 0 0-4.693333 60.16 60.16 0 0 1 120.32 0 31.146667 31.146667 0 0 0 1.28 4.693333z m309.546667 0h-124.586667v-3.413333a251.733333 251.733333 0 0 0-1.92-31.146667l38.826667-30.08a37.12 37.12 0 0 0 9.6-48.213333l-58.666667-101.546667a37.333333 37.333333 0 0 0-46.506667-15.786666l-52.053333 21.333333a252.586667 252.586667 0 0 0-38.826667-21.333333l-6.826666-49.92a37.333333 37.333333 0 0 0-36.906667-32.213334H450.133333a37.333333 37.333333 0 0 0-36.906666 32.213334L405.333333 661.333333a258.346667 258.346667 0 0 0-37.333333 23.04l-46.506667-18.986666a37.546667 37.546667 0 0 0-46.293333 17.28l-58.666667 101.546666a37.12 37.12 0 0 0 9.386667 47.786667l43.733333 33.92V886.186667H138.666667V138.666667h746.666666z"  /><path fill="#333333" d="M266.24 322.56h491.946667a37.333333 37.333333 0 0 0 0-74.666667H266.24a37.333333 37.333333 0 0 0 0 74.666667zM266.24 498.346667h491.946667a37.333333 37.333333 0 0 0 0-74.666667H266.24a37.333333 37.333333 0 0 0 0 74.666667z"  /></svg>