<?xml version="1.0" standalone="no"?><!DOCTYPE svg PUBLIC "-//W3C//DTD SVG 1.1//EN" "http://www.w3.org/Graphics/SVG/1.1/DTD/svg11.dtd"><svg class="icon" width="200px" height="200.00px" viewBox="0 0 1024 1024" version="1.1" xmlns="http://www.w3.org/2000/svg"><path fill="#333333" d="M225.706667 337.706667a37.333333 37.333333 0 0 0 0-74.666667H138.666667V138.666667h448v70.186666a37.333333 37.333333 0 0 0 74.666666 0v-106.666666A37.333333 37.333333 0 0 0 624 64H101.333333A37.333333 37.333333 0 0 0 64 101.333333v622.293334a37.333333 37.333333 0 0 0 37.333333 37.333333h124.373334a37.333333 37.333333 0 0 0 0-74.666667H138.666667v-124.586666h67.2a37.333333 37.333333 0 0 0 0-74.666667H138.666667v-149.333333z"  /><path fill="#333333" d="M922.666667 312.96H350.293333a37.333333 37.333333 0 0 0-37.333333 37.333333v572.373334A37.333333 37.333333 0 0 0 350.293333 960h572.373334A37.333333 37.333333 0 0 0 960 922.666667V350.293333a37.333333 37.333333 0 0 0-37.333333-37.333333z m-37.333334 74.666667v211.413333H387.626667v-211.413333zM387.626667 885.333333v-211.626666H885.333333v211.626666z"  /><path fill="#333333" d="M478.72 507.52a31.573333 31.573333 0 0 0 21.333333 9.173333 30.72 30.72 0 0 0 21.333334-9.173333 31.786667 31.786667 0 0 0 0-44.16 39.253333 39.253333 0 0 0-4.693334-3.626667 20.053333 20.053333 0 0 0-5.546666-2.986666 22.826667 22.826667 0 0 0-5.76-1.706667 29.226667 29.226667 0 0 0-12.16 0 25.6 25.6 0 0 0-5.76 1.706667 18.986667 18.986667 0 0 0-5.333334 2.986666l-4.906666 3.626667a32.213333 32.213333 0 0 0-8.96 21.333333 31.36 31.36 0 0 0 2.346666 11.946667 27.306667 27.306667 0 0 0 8.106667 10.88zM494.72 754.986667a17.92 17.92 0 0 0-5.76 1.706666 25.386667 25.386667 0 0 0-5.333333 2.773334 42.666667 42.666667 0 0 0-4.906667 3.84 31.573333 31.573333 0 0 0-6.613333 33.92 31.146667 31.146667 0 0 0 6.613333 10.24 32.213333 32.213333 0 0 0 21.333333 8.96 30.506667 30.506667 0 0 0 30.933334-31.146667 30.72 30.72 0 0 0-37.12-30.293333zM635.733333 522.88h136.32a37.333333 37.333333 0 0 0 0-74.666667H635.733333a37.333333 37.333333 0 0 0 0 74.666667zM772.053333 747.946667H635.733333a37.333333 37.333333 0 1 0 0 74.666666h136.32a37.333333 37.333333 0 0 0 0-74.666666z"  /></svg>