<?xml version="1.0" standalone="no"?><!DOCTYPE svg PUBLIC "-//W3C//DTD SVG 1.1//EN" "http://www.w3.org/Graphics/SVG/1.1/DTD/svg11.dtd"><svg class="icon" width="200px" height="200.00px" viewBox="0 0 1024 1024" version="1.1" xmlns="http://www.w3.org/2000/svg"><path fill="#333333" d="M225.706667 686.293333H138.666667v-124.586666h67.2a37.333333 37.333333 0 0 0 0-74.666667H138.666667v-149.333333h87.04a37.333333 37.333333 0 0 0 0-74.666667H138.666667V138.666667h448v70.186666a37.333333 37.333333 0 0 0 74.666666 0v-106.666666A37.333333 37.333333 0 0 0 624 64H101.333333A37.333333 37.333333 0 0 0 64 101.333333v622.293334a37.333333 37.333333 0 0 0 37.333333 37.333333h124.373334a37.333333 37.333333 0 0 0 0-74.666667z"  /><path fill="#333333" d="M813.653333 536.533333a286.293333 286.293333 0 0 0-404.266666 0 31.146667 31.146667 0 1 0 43.946666 43.946667 224.213333 224.213333 0 0 1 316.373334 0 30.933333 30.933333 0 0 0 43.946666 0 30.933333 30.933333 0 0 0 0-43.946667z"  /><path fill="#333333" d="M472.533333 626.346667a31.146667 31.146667 0 0 0 43.946667 43.946666 134.826667 134.826667 0 0 1 190.08 0 31.146667 31.146667 0 1 0 44.16-43.946666 197.12 197.12 0 0 0-278.186667 0z"  /><path fill="#333333" d="M536.106667 712.106667a30.933333 30.933333 0 0 0 0 43.946666 30.08 30.08 0 0 0 21.333333 9.173334 30.933333 30.933333 0 0 0 21.333333-9.173334 44.8 44.8 0 0 1 64 0 31.146667 31.146667 0 0 0 43.946667-43.946666 106.666667 106.666667 0 0 0-150.613333 0z"  /><path fill="#333333" d="M611.626667 263.04A348.586667 348.586667 0 1 0 960 611.626667a349.013333 349.013333 0 0 0-348.373333-348.586667z m0 622.293333A273.92 273.92 0 1 1 885.333333 611.626667 274.133333 274.133333 0 0 1 611.626667 885.333333z"  /></svg>