<?xml version="1.0" standalone="no"?><!DOCTYPE svg PUBLIC "-//W3C//DTD SVG 1.1//EN" "http://www.w3.org/Graphics/SVG/1.1/DTD/svg11.dtd"><svg class="icon" width="200px" height="200.00px" viewBox="0 0 1024 1024" version="1.1" xmlns="http://www.w3.org/2000/svg"><path fill="#333333" d="M960 433.92c0-83.626667-149.333333-120.96-298.666667-120.96s-298.666667 37.333333-298.666666 120.96V874.666667h11.946666c36.693333 58.88 162.56 85.333333 287.786667 85.333333 149.333333 0 298.666667-37.76 298.666667-122.026667V436.053333s-1.066667-1.493333-1.066667-2.133333z m-74.666667 197.76c-10.026667 14.933333-85.333333 48.853333-224 48.853333s-213.333333-33.92-224-48.853333v-113.493333A600.533333 600.533333 0 0 0 661.333333 554.666667a600.533333 600.533333 0 0 0 224-36.48zM661.333333 387.626667c130.986667 0 205.653333 30.08 221.866667 46.293333-16.213333 16-90.88 46.08-221.866667 46.08s-205.653333-30.08-221.866666-46.08c16.213333-16.213333 90.88-46.293333 221.866666-46.293333z m0 497.706666c-138.453333 0-213.333333-34.56-224-49.92v-116.906666A600.32 600.32 0 0 0 661.333333 755.2a600.32 600.32 0 0 0 224-36.693333v116.906666c-10.666667 15.36-85.333333 49.92-224 49.92z"  /><path fill="#333333" d="M225.706667 337.706667a37.333333 37.333333 0 0 0 0-74.666667H138.666667V138.666667h448v70.186666a37.333333 37.333333 0 0 0 74.666666 0v-106.666666A37.333333 37.333333 0 0 0 624 64H101.333333A37.333333 37.333333 0 0 0 64 101.333333v622.293334a37.333333 37.333333 0 0 0 37.333333 37.333333h124.373334a37.333333 37.333333 0 0 0 0-74.666667H138.666667v-124.586666h67.2a37.333333 37.333333 0 0 0 0-74.666667H138.666667v-149.333333z"  /></svg>