<?xml version="1.0" standalone="no"?><!DOCTYPE svg PUBLIC "-//W3C//DTD SVG 1.1//EN" "http://www.w3.org/Graphics/SVG/1.1/DTD/svg11.dtd"><svg class="icon" width="200px" height="200.00px" viewBox="0 0 1024 1024" version="1.1" xmlns="http://www.w3.org/2000/svg"><path fill="#333333" d="M225.706667 337.706667a37.333333 37.333333 0 0 0 0-74.666667H138.666667V138.666667h448v70.186666a37.333333 37.333333 0 0 0 74.666666 0v-106.666666A37.333333 37.333333 0 0 0 624 64H101.333333A37.333333 37.333333 0 0 0 64 101.333333v622.293334a37.333333 37.333333 0 0 0 37.333333 37.333333h124.373334a37.333333 37.333333 0 0 0 0-74.666667H138.666667v-124.586666h67.2a37.333333 37.333333 0 0 0 0-74.666667H138.666667v-149.333333z"  /><path fill="#333333" d="M922.666667 312.96H350.293333a37.333333 37.333333 0 0 0-37.333333 37.333333v572.373334A37.333333 37.333333 0 0 0 350.293333 960h572.373334A37.333333 37.333333 0 0 0 960 922.666667V350.293333a37.333333 37.333333 0 0 0-37.333333-37.333333zM885.333333 885.333333H387.626667V387.626667H885.333333z"  /><path fill="#333333" d="M453.546667 748.8a30.08 30.08 0 0 0 21.333333 9.173333 30.933333 30.933333 0 0 0 21.333333-9.173333l90.24-90.453333a30.933333 30.933333 0 0 0 0-43.946667l-90.24-90.453333a31.146667 31.146667 0 1 0-43.946666 44.16l68.266666 68.266666L453.546667 704a30.933333 30.933333 0 0 0 0 44.8zM690.346667 757.973333h90.453333a31.146667 31.146667 0 0 0 0-62.293333h-90.453333a31.146667 31.146667 0 1 0 0 62.293333z"  /></svg>