<?xml version="1.0" standalone="no"?><!DOCTYPE svg PUBLIC "-//W3C//DTD SVG 1.1//EN" "http://www.w3.org/Graphics/SVG/1.1/DTD/svg11.dtd"><svg class="icon" width="200px" height="200.00px" viewBox="0 0 1024 1024" version="1.1" xmlns="http://www.w3.org/2000/svg"><path fill="#333333" d="M225.706667 337.706667a37.333333 37.333333 0 0 0 0-74.666667H138.666667V138.666667h448v70.186666a37.333333 37.333333 0 0 0 74.666666 0v-106.666666A37.333333 37.333333 0 0 0 624 64H101.333333A37.333333 37.333333 0 0 0 64 101.333333v622.293334a37.333333 37.333333 0 0 0 37.333333 37.333333h124.373334a37.333333 37.333333 0 0 0 0-74.666667H138.666667v-124.586666h67.2a37.333333 37.333333 0 0 0 0-74.666667H138.666667v-149.333333z"  /><path fill="#333333" d="M922.666667 312.96h-373.333334A37.333333 37.333333 0 0 0 512 350.293333V512h-161.706667a37.333333 37.333333 0 0 0-37.333333 37.333333v373.333334A37.333333 37.333333 0 0 0 350.293333 960h373.333334a37.333333 37.333333 0 0 0 37.333333-37.333333v-161.706667h161.706667A37.333333 37.333333 0 0 0 960 723.626667v-373.333334a37.333333 37.333333 0 0 0-37.333333-37.333333zM686.293333 885.333333h-298.666666v-298.666666H512v136.96a37.333333 37.333333 0 0 0 37.333333 37.333333h136.96z m0-199.04H586.666667V586.666667h99.626666z m199.04 0h-124.373333v-136.96A37.333333 37.333333 0 0 0 723.626667 512H586.666667v-124.373333h298.666666z"  /></svg>