<?xml version="1.0" standalone="no"?><!DOCTYPE svg PUBLIC "-//W3C//DTD SVG 1.1//EN" "http://www.w3.org/Graphics/SVG/1.1/DTD/svg11.dtd"><svg class="icon" width="200px" height="200.00px" viewBox="0 0 1024 1024" version="1.1" xmlns="http://www.w3.org/2000/svg"><path fill="#333333" d="M922.666667 312.96H449.706667a37.333333 37.333333 0 0 0-37.333334 37.333333v572.373334A37.333333 37.333333 0 0 0 449.706667 960h472.96A37.333333 37.333333 0 0 0 960 922.666667V350.293333a37.333333 37.333333 0 0 0-37.333333-37.333333zM885.333333 885.333333H487.04V387.626667H885.333333z"  /><path fill="#333333" d="M664.106667 765.866667a31.573333 31.573333 0 0 0-8.96 21.333333 32.853333 32.853333 0 0 0 2.346666 11.733333 28.373333 28.373333 0 0 0 6.613334 10.026667 29.653333 29.653333 0 0 0 10.24 6.826667 31.573333 31.573333 0 0 0 11.946666 2.56 34.346667 34.346667 0 0 0 11.946667-2.56 31.146667 31.146667 0 0 0 10.026667-5.12 28.373333 28.373333 0 0 0 6.613333-10.026667 29.226667 29.226667 0 0 0 2.56-11.733333 31.36 31.36 0 0 0-53.333333-21.333334zM640 519.253333h94.506667a31.146667 31.146667 0 1 0 0-62.08H640a31.146667 31.146667 0 1 0 0 62.08zM225.706667 337.706667a37.333333 37.333333 0 0 0 0-74.666667H138.666667V138.666667h448v70.186666a37.333333 37.333333 0 0 0 74.666666 0v-106.666666A37.333333 37.333333 0 0 0 624 64H101.333333A37.333333 37.333333 0 0 0 64 101.333333v622.293334a37.333333 37.333333 0 0 0 37.333333 37.333333h124.373334a37.333333 37.333333 0 0 0 0-74.666667H138.666667v-124.586666h67.2a37.333333 37.333333 0 0 0 0-74.666667H138.666667v-149.333333z"  /></svg>