<?xml version="1.0" standalone="no"?><!DOCTYPE svg PUBLIC "-//W3C//DTD SVG 1.1//EN" "http://www.w3.org/Graphics/SVG/1.1/DTD/svg11.dtd"><svg class="icon" width="200px" height="200.00px" viewBox="0 0 1024 1024" version="1.1" xmlns="http://www.w3.org/2000/svg"><path fill="#333333" d="M225.706667 337.706667a37.333333 37.333333 0 0 0 0-74.666667H138.666667V138.666667h448v70.186666a37.333333 37.333333 0 0 0 74.666666 0v-106.666666A37.333333 37.333333 0 0 0 624 64H101.333333A37.333333 37.333333 0 0 0 64 101.333333v622.293334a37.333333 37.333333 0 0 0 37.333333 37.333333h124.373334a37.333333 37.333333 0 0 0 0-74.666667H138.666667v-124.586666h67.2a37.333333 37.333333 0 0 0 0-74.666667H138.666667v-149.333333z"  /><path fill="#333333" d="M942.08 416.213333l-261.333333-158.293333a38.4 38.4 0 0 0-38.826667 0l-261.333333 158.293333A37.333333 37.333333 0 0 0 362.666667 448v316.586667a37.12 37.12 0 0 0 17.92 31.786666l261.333333 158.293334a37.973333 37.973333 0 0 0 38.826667 0l261.333333-158.293334a37.12 37.12 0 0 0 17.92-31.786666V448a37.333333 37.333333 0 0 0-17.92-31.786667zM885.333333 743.466667L661.333333 878.933333l-224-135.466666V469.333333L661.333333 333.653333 885.333333 469.333333z"  /><path fill="#333333" d="M530.133333 497.92a37.333333 37.333333 0 0 0-38.613333 64l132.48 80v161.28a37.333333 37.333333 0 1 0 74.666667 0v-161.28L832 561.92a37.333333 37.333333 0 0 0-38.613333-64L661.333333 577.28z"  /></svg>