<?xml version="1.0" standalone="no"?><!DOCTYPE svg PUBLIC "-//W3C//DTD SVG 1.1//EN" "http://www.w3.org/Graphics/SVG/1.1/DTD/svg11.dtd"><svg class="icon" width="200px" height="200.00px" viewBox="0 0 1024 1024" version="1.1" xmlns="http://www.w3.org/2000/svg"><path fill="#333333" d="M225.706667 337.706667a37.333333 37.333333 0 0 0 0-74.666667H138.666667V138.666667h448v70.186666a37.333333 37.333333 0 0 0 74.666666 0v-106.666666A37.333333 37.333333 0 0 0 624 64H101.333333A37.333333 37.333333 0 0 0 64 101.333333v622.293334a37.333333 37.333333 0 0 0 37.333333 37.333333h124.373334a37.333333 37.333333 0 0 0 0-74.666667H138.666667v-124.586666h67.2a37.333333 37.333333 0 0 0 0-74.666667H138.666667v-149.333333z"  /><path fill="#333333" d="M922.666667 312.96H350.293333a37.333333 37.333333 0 0 0-37.333333 37.333333v572.373334A37.333333 37.333333 0 0 0 350.293333 960h572.373334A37.333333 37.333333 0 0 0 960 922.666667V350.293333a37.333333 37.333333 0 0 0-37.333333-37.333333zM636.373333 723.2a86.826667 86.826667 0 1 1 86.826667-86.826667 86.826667 86.826667 0 0 1-86.826667 86.826667zM387.626667 387.626667h217.813333V490.666667a149.333333 149.333333 0 0 0 0 291.2v103.466666H387.626667zM885.333333 885.333333H667.52v-103.253333a149.333333 149.333333 0 0 0 0-291.2v-103.253333H885.333333z"  /></svg>