<?xml version="1.0" standalone="no"?><!DOCTYPE svg PUBLIC "-//W3C//DTD SVG 1.1//EN" "http://www.w3.org/Graphics/SVG/1.1/DTD/svg11.dtd"><svg class="icon" width="200px" height="200.00px" viewBox="0 0 1024 1024" version="1.1" xmlns="http://www.w3.org/2000/svg"><path fill="#333333" d="M225.706667 337.706667a37.333333 37.333333 0 0 0 0-74.666667H138.666667V138.666667h448v70.186666a37.333333 37.333333 0 0 0 74.666666 0v-106.666666A37.333333 37.333333 0 0 0 624 64H101.333333A37.333333 37.333333 0 0 0 64 101.333333v622.293334a37.333333 37.333333 0 0 0 37.333333 37.333333h124.373334a37.333333 37.333333 0 0 0 0-74.666667H138.666667v-124.586666h67.2a37.333333 37.333333 0 0 0 0-74.666667H138.666667v-149.333333z"  /><path fill="#333333" d="M922.666667 312.96h-522.666667A37.333333 37.333333 0 0 0 362.666667 350.293333v572.373334A37.333333 37.333333 0 0 0 400 960h522.666667A37.333333 37.333333 0 0 0 960 922.666667V350.293333a37.333333 37.333333 0 0 0-37.333333-37.333333z m-352.213334 74.666667h181.76V469.333333h-181.76zM885.333333 885.333333h-448V387.626667h70.826667v113.28a31.36 31.36 0 0 0 31.146667 31.146666h244.053333a31.36 31.36 0 0 0 31.146667-31.146666v-113.28h70.826666z"  /><path fill="#333333" d="M746.666667 605.226667h-175.36a31.146667 31.146667 0 1 0 0 62.293333H746.666667a31.146667 31.146667 0 0 0 0-62.293333zM746.666667 756.053333h-175.36a31.146667 31.146667 0 1 0 0 62.08H746.666667a31.146667 31.146667 0 0 0 0-62.08z"  /></svg>