<?xml version="1.0" standalone="no"?><!DOCTYPE svg PUBLIC "-//W3C//DTD SVG 1.1//EN" "http://www.w3.org/Graphics/SVG/1.1/DTD/svg11.dtd"><svg class="icon" width="200px" height="200.00px" viewBox="0 0 1024 1024" version="1.1" xmlns="http://www.w3.org/2000/svg"><path fill="#333333" d="M867.626667 21.333333H156.16A36.693333 36.693333 0 0 0 119.466667 58.24v907.52A36.693333 36.693333 0 0 0 156.16 1002.666667h711.466667a36.693333 36.693333 0 0 0 36.906666-36.906667V58.24A36.693333 36.693333 0 0 0 867.626667 21.333333zM364.8 94.933333h294.4v110.933334H364.8zM832 929.066667H193.066667V94.933333h98.133333v147.626667a36.906667 36.906667 0 0 0 36.693333 36.906667h368a36.906667 36.906667 0 0 0 36.906667-36.906667V94.933333H832z"  /><path fill="#333333" d="M695.893333 754.56H327.893333a36.906667 36.906667 0 0 0 0 73.6h368a36.906667 36.906667 0 1 0 0-73.6zM695.893333 570.666667H327.893333a36.906667 36.906667 0 0 0 0 73.6h368a36.906667 36.906667 0 1 0 0-73.6zM695.893333 386.56H327.893333a36.906667 36.906667 0 0 0 0 73.6h368a36.906667 36.906667 0 1 0 0-73.6z"  /></svg>