<?xml version="1.0" standalone="no"?><!DOCTYPE svg PUBLIC "-//W3C//DTD SVG 1.1//EN" "http://www.w3.org/Graphics/SVG/1.1/DTD/svg11.dtd"><svg class="icon" width="200px" height="200.00px" viewBox="0 0 1024 1024" version="1.1" xmlns="http://www.w3.org/2000/svg"><path fill="#333333" d="M225.706667 337.706667a37.333333 37.333333 0 0 0 0-74.666667H138.666667V138.666667h448v70.186666a37.333333 37.333333 0 0 0 74.666666 0v-106.666666A37.333333 37.333333 0 0 0 624 64H101.333333A37.333333 37.333333 0 0 0 64 101.333333v622.293334a37.333333 37.333333 0 0 0 37.333333 37.333333h124.373334a37.333333 37.333333 0 0 0 0-74.666667H138.666667v-124.586666h67.2a37.333333 37.333333 0 0 0 0-74.666667H138.666667v-149.333333z"  /><path fill="#333333" d="M922.666667 312.96H350.293333a37.333333 37.333333 0 0 0-37.333333 37.333333v572.373334A37.333333 37.333333 0 0 0 350.293333 960h572.373334A37.333333 37.333333 0 0 0 960 922.666667V350.293333a37.333333 37.333333 0 0 0-37.333333-37.333333z m-37.333334 74.666667v226.133333H725.333333l-64-85.333333a30.933333 30.933333 0 0 0-24.96-12.586667 31.146667 31.146667 0 0 0-24.96 12.8l-86.4 119.253333-19.626666-22.4a31.146667 31.146667 0 0 0-23.253334-10.453333h-94.506666V387.626667zM387.626667 885.333333v-207.786666H469.333333l36.053334 40.96a30.293333 30.293333 0 0 0 23.253333 10.666666h1.493333a31.573333 31.573333 0 0 0 23.68-12.8l85.333334-116.48 47.573333 64a30.72 30.72 0 0 0 24.96 12.373334h173.653333v209.066666z"  /></svg>