<?xml version="1.0" standalone="no"?><!DOCTYPE svg PUBLIC "-//W3C//DTD SVG 1.1//EN" "http://www.w3.org/Graphics/SVG/1.1/DTD/svg11.dtd"><svg class="icon" width="200px" height="200.00px" viewBox="0 0 1024 1024" version="1.1" xmlns="http://www.w3.org/2000/svg"><path fill="#333333" d="M225.706667 337.706667a37.333333 37.333333 0 0 0 0-74.666667H138.666667V138.666667h448v70.186666a37.333333 37.333333 0 0 0 74.666666 0v-106.666666A37.333333 37.333333 0 0 0 624 64H101.333333A37.333333 37.333333 0 0 0 64 101.333333v622.293334a37.333333 37.333333 0 0 0 37.333333 37.333333h124.373334a37.333333 37.333333 0 0 0 0-74.666667H138.666667v-124.586666h67.2a37.333333 37.333333 0 0 0 0-74.666667H138.666667v-149.333333z"  /><path fill="#333333" d="M922.666667 312.96H449.706667a37.333333 37.333333 0 0 0-37.333334 37.333333v572.373334A37.333333 37.333333 0 0 0 449.706667 960h472.96A37.333333 37.333333 0 0 0 960 922.666667V350.293333a37.333333 37.333333 0 0 0-37.333333-37.333333zM885.333333 885.333333H487.04V387.626667H885.333333z"  /><path fill="#333333" d="M609.92 667.52H768a31.146667 31.146667 0 1 0 0-62.293333h-158.08a31.146667 31.146667 0 0 0 0 62.293333zM609.92 516.906667H768a31.146667 31.146667 0 0 0 0-62.293334h-158.08a31.146667 31.146667 0 0 0 0 62.293334zM796.373333 760.106667a18.986667 18.986667 0 0 0-2.986666-5.333334 25.173333 25.173333 0 0 0-3.626667-4.693333L785.066667 746.666667l-5.546667-2.773334a22.826667 22.826667 0 0 0-5.76-1.706666 32 32 0 0 0-28.16 8.533333l-3.84 4.693333a25.386667 25.386667 0 0 0-2.773333 5.333334 19.626667 19.626667 0 0 0-1.706667 5.76 30.933333 30.933333 0 0 0 0 5.973333 27.946667 27.946667 0 0 0 2.56 11.946667 29.226667 29.226667 0 0 0 6.613333 10.24 31.146667 31.146667 0 0 0 10.026667 6.826666 32.853333 32.853333 0 0 0 11.946667 2.133334 31.573333 31.573333 0 0 0 21.333333-8.96 36.693333 36.693333 0 0 0 6.613333-10.24 27.733333 27.733333 0 0 0 2.346667-11.946667v-5.973333c0-2.133333-1.493333-4.48-2.346667-6.4z"  /></svg>