<?xml version="1.0" standalone="no"?><!DOCTYPE svg PUBLIC "-//W3C//DTD SVG 1.1//EN" "http://www.w3.org/Graphics/SVG/1.1/DTD/svg11.dtd"><svg class="icon" width="200px" height="200.00px" viewBox="0 0 1024 1024" version="1.1" xmlns="http://www.w3.org/2000/svg"><path fill="#333333" d="M225.706667 337.706667a37.333333 37.333333 0 0 0 0-74.666667H138.666667V138.666667h448v70.186666a37.333333 37.333333 0 0 0 74.666666 0v-106.666666A37.333333 37.333333 0 0 0 624 64H101.333333A37.333333 37.333333 0 0 0 64 101.333333v622.293334a37.333333 37.333333 0 0 0 37.333333 37.333333h124.373334a37.333333 37.333333 0 0 0 0-74.666667H138.666667v-124.586666h67.2a37.333333 37.333333 0 0 0 0-74.666667H138.666667v-149.333333z"  /><path fill="#333333" d="M941.866667 423.893333L680.533333 268.373333a37.546667 37.546667 0 0 0-38.4 0l-261.333333 155.52a37.333333 37.333333 0 0 0-18.133333 32V768a37.12 37.12 0 0 0 18.133333 32l261.333333 154.666667a37.12 37.12 0 0 0 38.4 0l261.333334-155.52A37.12 37.12 0 0 0 960 768V455.893333a37.333333 37.333333 0 0 0-18.133333-32zM885.333333 746.666667L661.333333 879.146667 437.333333 746.666667V477.226667L661.333333 343.893333l224 133.333334z"  /><path fill="#333333" d="M641.92 443.946667L529.92 512a37.76 37.76 0 0 0-17.92 32v135.466667a37.333333 37.333333 0 0 0 17.92 32l112 67.84a37.973333 37.973333 0 0 0 38.826667 0l112-67.84a37.333333 37.333333 0 0 0 17.92-32v-135.68a37.76 37.76 0 0 0-17.92-32l-112-67.84a38.4 38.4 0 0 0-38.826667 0z m94.08 120.96v93.44L661.333333 704l-74.666666-45.226667v-93.866666l74.666666-45.226667z"  /></svg>