<?xml version="1.0" standalone="no"?><!DOCTYPE svg PUBLIC "-//W3C//DTD SVG 1.1//EN" "http://www.w3.org/Graphics/SVG/1.1/DTD/svg11.dtd"><svg class="icon" width="200px" height="200.00px" viewBox="0 0 1024 1024" version="1.1" xmlns="http://www.w3.org/2000/svg"><path fill="#333333" d="M965.76 119.466667H58.026667A36.693333 36.693333 0 0 0 21.333333 156.16v711.466667a36.693333 36.693333 0 0 0 36.693334 36.906666h907.733333A36.693333 36.693333 0 0 0 1002.666667 867.626667V156.16a36.693333 36.693333 0 0 0-36.906667-36.693333zM929.066667 832H94.933333V193.066667h834.133334z"  /><path fill="#333333" d="M415.36 598.4a197.546667 197.546667 0 0 0 196.693333 47.573333l105.386667 105.386667a84.053333 84.053333 0 0 0 59.306667 24.32h2.346666a89.173333 89.173333 0 0 0 60.8-26.453333l21.333334-20.266667a86.613333 86.613333 0 0 0 2.133333-122.24l-106.453333-105.386667A193.92 193.92 0 0 0 513.706667 256a30.72 30.72 0 0 0-13.226667 50.986667l72.746667 72.96a49.92 49.92 0 0 1 14.506666 37.546666 58.88 58.88 0 0 1-17.706666 40.746667 60.586667 60.586667 0 0 1-40.746667 17.92 49.706667 49.706667 0 0 1-38.613333-13.866667l-72.746667-72.746666a30.293333 30.293333 0 0 0-29.226667-8.106667 31.36 31.36 0 0 0-21.333333 21.333333 198.186667 198.186667 0 0 0 47.786667 195.84zM448 505.6a112.853333 112.853333 0 0 0 82.773333 32.64 123.093333 123.093333 0 0 0 118.186667-118.4 111.573333 111.573333 0 0 0-32.426667-82.773333l-26.453333-26.24a131.626667 131.626667 0 0 1 75.733333 36.693333 137.386667 137.386667 0 0 1 27.093334 149.333333 30.506667 30.506667 0 0 0 6.826666 33.28l119.04 119.04a25.6 25.6 0 0 1-2.133333 35.626667l-20.266667 21.333333a29.44 29.44 0 0 1-19.2 8.533334 19.626667 19.626667 0 0 1-16.426666-6.4l-119.253334-119.04a29.866667 29.866667 0 0 0-21.333333-8.96 30.72 30.72 0 0 0-11.52 2.133333 137.813333 137.813333 0 0 1-149.333333-27.093333 130.986667 130.986667 0 0 1-36.693334-75.733334zM185.813333 751.146667h269.866667a36.906667 36.906667 0 0 0 0-73.6H185.813333a36.906667 36.906667 0 1 0 0 73.6zM185.813333 346.453333h122.666667a36.906667 36.906667 0 0 0 0-73.6H185.813333a36.906667 36.906667 0 1 0 0 73.6zM185.813333 548.693333h73.6a36.906667 36.906667 0 0 0 0-73.6H185.813333a36.906667 36.906667 0 1 0 0 73.6z"  /></svg>