<?xml version="1.0" standalone="no"?><!DOCTYPE svg PUBLIC "-//W3C//DTD SVG 1.1//EN" "http://www.w3.org/Graphics/SVG/1.1/DTD/svg11.dtd"><svg class="icon" width="200px" height="200.00px" viewBox="0 0 1024 1024" version="1.1" xmlns="http://www.w3.org/2000/svg"><path fill="#333333" d="M867.626667 168.533333h-94.72V114.986667a36.906667 36.906667 0 0 0-36.693334-36.906667H669.866667v-20.053333A36.693333 36.693333 0 0 0 632.96 21.333333H399.786667A36.693333 36.693333 0 0 0 362.666667 58.026667v20.053333h-74.88a36.906667 36.906667 0 0 0-36.693334 36.906667V168.533333H156.16A36.693333 36.693333 0 0 0 119.466667 205.226667v760.533333A36.693333 36.693333 0 0 0 156.16 1002.666667h711.466667a36.693333 36.693333 0 0 0 36.906666-36.906667V205.226667a36.693333 36.693333 0 0 0-36.906666-36.693334z m-542.933334-16.853333h75.093334a36.693333 36.693333 0 0 0 36.906666-36.693333v-20.053334H597.333333v20.053334a36.693333 36.693333 0 0 0 36.693334 36.693333h66.346666v74.026667H324.693333zM832 929.066667H193.066667v-686.933334h58.026666v21.333334A36.693333 36.693333 0 0 0 287.786667 298.666667h448a36.693333 36.693333 0 0 0 36.693333-36.693334v-21.333333H832z"  /><path fill="#333333" d="M512 393.386667a36.906667 36.906667 0 0 0-36.906667 36.906666v368a36.906667 36.906667 0 0 0 73.6 0V430.293333A36.693333 36.693333 0 0 0 512 393.386667zM695.893333 442.453333a36.693333 36.693333 0 0 0-36.693333 36.906667v320a36.906667 36.906667 0 0 0 73.6 0v-320a36.693333 36.693333 0 0 0-36.906667-36.906667zM327.893333 589.653333a36.693333 36.693333 0 0 0-36.693333 36.906667v171.733333a36.906667 36.906667 0 0 0 73.6 0v-170.666666a36.693333 36.693333 0 0 0-36.906667-37.973334z"  /></svg>