<?xml version="1.0" standalone="no"?><!DOCTYPE svg PUBLIC "-//W3C//DTD SVG 1.1//EN" "http://www.w3.org/Graphics/SVG/1.1/DTD/svg11.dtd"><svg class="icon" width="200px" height="200.00px" viewBox="0 0 1024 1024" version="1.1" xmlns="http://www.w3.org/2000/svg"><path fill="#333333" d="M721.92 535.04a36.693333 36.693333 0 1 0-51.84-52.053333l-210.56 210.133333-105.6-104.96A36.693333 36.693333 0 1 0 302.08 640l131.626667 130.986667a36.48 36.48 0 0 0 25.813333 10.666666 37.333333 37.333333 0 0 0 26.026667-10.666666zM327.893333 487.466667h220.8a36.906667 36.906667 0 1 0 0-73.6H327.893333a36.906667 36.906667 0 0 0 0 73.6zM327.893333 315.733333h368a36.906667 36.906667 0 1 0 0-73.6H327.893333a36.906667 36.906667 0 0 0 0 73.6z"  /><path fill="#333333" d="M867.626667 21.333333H156.16A36.693333 36.693333 0 0 0 119.466667 58.24v907.733333A36.906667 36.906667 0 0 0 157.226667 1002.666667h521.386666a36.48 36.48 0 0 0 25.386667-10.24l94.933333-90.88 94.72-93.226667a37.546667 37.546667 0 0 0 10.88-26.24V58.026667A36.693333 36.693333 0 0 0 867.626667 21.333333zM193.066667 94.933333H832v606.506667h-201.173333a36.906667 36.906667 0 0 0-36.906667 36.693333v190.933334H193.92z m554.666666 753.92l-80.213333 76.586667v-150.4h155.093333z"  /></svg>