<?xml version="1.0" standalone="no"?><!DOCTYPE svg PUBLIC "-//W3C//DTD SVG 1.1//EN" "http://www.w3.org/Graphics/SVG/1.1/DTD/svg11.dtd"><svg class="icon" width="200px" height="200.00px" viewBox="0 0 1024 1024" version="1.1" xmlns="http://www.w3.org/2000/svg"><path fill="#333333" d="M375.253333 512H101.546667a37.333333 37.333333 0 1 0 0 74.666667h273.706666a37.333333 37.333333 0 1 0 0-74.666667zM375.253333 698.666667H101.546667a37.333333 37.333333 0 1 0 0 74.666666h273.706666a37.333333 37.333333 0 1 0 0-74.666666zM375.253333 885.333333H101.546667a37.333333 37.333333 0 1 0 0 74.666667h273.706666a37.333333 37.333333 0 1 0 0-74.666667zM922.666667 64H101.333333A37.333333 37.333333 0 0 0 64 101.333333v273.706667a37.333333 37.333333 0 0 0 37.333333 37.333333h821.333334A37.333333 37.333333 0 0 0 960 375.04V101.333333A37.333333 37.333333 0 0 0 922.666667 64zM885.333333 337.706667h-746.666666V138.666667h746.666666zM866.346667 813.44a224 224 0 1 0-52.906667 52.693333L896 949.12A37.333333 37.333333 0 0 0 949.12 896zM580.266667 789.333333a148.053333 148.053333 0 1 1 209.066666 0 147.626667 147.626667 0 0 1-209.066666 0z" /></svg>