<?xml version="1.0" standalone="no"?><!DOCTYPE svg PUBLIC "-//W3C//DTD SVG 1.1//EN" "http://www.w3.org/Graphics/SVG/1.1/DTD/svg11.dtd"><svg class="icon" width="200px" height="200.00px" viewBox="0 0 1024 1024" version="1.1" xmlns="http://www.w3.org/2000/svg"><path fill="#333333" d="M481.28 350.293333a37.333333 37.333333 0 0 0-37.333333-37.333333h-224a37.333333 37.333333 0 0 0 0 74.666667h224a37.333333 37.333333 0 0 0 37.333333-37.333334zM219.946667 550.613333h174.293333a37.333333 37.333333 0 0 0 0-74.666666h-174.293333a37.333333 37.333333 0 1 0 0 74.666666zM219.946667 711.04h224a37.333333 37.333333 0 1 0 0-74.666667h-224a37.333333 37.333333 0 0 0 0 74.666667z"  /><path fill="#333333" d="M773.333333 760.96a37.333333 37.333333 0 0 0-37.333333 37.333333v87.04h-597.333333v-746.666666h597.333333v87.04a37.333333 37.333333 0 0 0 74.666667 0V101.333333A37.333333 37.333333 0 0 0 773.333333 64H101.333333A37.333333 37.333333 0 0 0 64 101.333333v821.333334A37.333333 37.333333 0 0 0 101.333333 960h672A37.333333 37.333333 0 0 0 810.666667 922.666667v-124.373334a37.333333 37.333333 0 0 0-37.333334-37.333333z"  /><path fill="#333333" d="M949.12 725.333333l-82.773333-82.773333a223.36 223.36 0 1 0-52.906667 52.693333L896 778.24A37.333333 37.333333 0 1 0 949.12 725.333333zM580.266667 618.666667a148.053333 148.053333 0 1 1 209.066666 0 147.84 147.84 0 0 1-209.066666 0z"  /></svg>