<?xml version="1.0" standalone="no"?><!DOCTYPE svg PUBLIC "-//W3C//DTD SVG 1.1//EN" "http://www.w3.org/Graphics/SVG/1.1/DTD/svg11.dtd"><svg class="icon" width="200px" height="200.00px" viewBox="0 0 1024 1024" version="1.1" xmlns="http://www.w3.org/2000/svg"><path fill="#333333" d="M474.666667 64H101.333333A37.333333 37.333333 0 0 0 64 101.333333v821.333334a37.333333 37.333333 0 0 0 58.666667 30.506666l165.546666-115.626666 165.12 115.626666a37.333333 37.333333 0 0 0 21.333334 6.826667 38.4 38.4 0 0 0 17.28-4.266667 37.12 37.12 0 0 0 20.053333-33.066666V101.333333A37.333333 37.333333 0 0 0 474.666667 64zM437.333333 850.986667l-128-89.6a37.12 37.12 0 0 0-42.666666 0l-128 89.6V138.666667h298.666666zM922.666667 736H648.96a37.333333 37.333333 0 0 0 0 74.666667h273.706667a37.333333 37.333333 0 0 0 0-74.666667zM922.666667 474.666667H648.96a37.333333 37.333333 0 0 0 0 74.666666h273.706667a37.333333 37.333333 0 0 0 0-74.666666zM648.96 288h273.706667a37.333333 37.333333 0 0 0 0-74.666667H648.96a37.333333 37.333333 0 0 0 0 74.666667z" /></svg>