<?xml version="1.0" standalone="no"?><!DOCTYPE svg PUBLIC "-//W3C//DTD SVG 1.1//EN" "http://www.w3.org/Graphics/SVG/1.1/DTD/svg11.dtd"><svg class="icon" width="200px" height="200.00px" viewBox="0 0 1024 1024" version="1.1" xmlns="http://www.w3.org/2000/svg"><path fill="#333333" d="M948.906667 75.093333A32.64 32.64 0 0 0 922.453333 64H832a768 768 0 0 0-282.666667 55.68l-37.333333 14.933333-52.053333-19.84A770.56 770.56 0 0 0 178.986667 64H101.12A37.546667 37.546667 0 0 0 64 101.546667v707.2a37.333333 37.333333 0 0 0 37.333333 37.333333h17.706667a700.373333 700.373333 0 0 1 351.786667 95.786667l21.333333 12.8h1.28a35.413333 35.413333 0 0 0 6.613333 2.56h2.133334A40.96 40.96 0 0 0 512 960a32.853333 32.853333 0 0 0 9.173333-1.28h2.346667a47.146667 47.146667 0 0 0 7.466667-3.413333 698.666667 698.666667 0 0 1 372.266666-107.946667h18.986667A37.333333 37.333333 0 0 0 960 808.746667V101.546667a37.76 37.76 0 0 0-11.093333-26.453334zM138.666667 771.84V138.666667h40.96A713.173333 713.173333 0 0 1 433.066667 184.533333l41.6 15.786667v658.56A773.333333 773.333333 0 0 0 138.666667 771.84z m746.666666 0a768 768 0 0 0-336.426666 85.333333V199.04L576 189.013333a700.16 700.16 0 0 1 256-49.706666h53.333333z"  /><path fill="#333333" d="M368.853333 520.533333h-124.373333a37.333333 37.333333 0 0 0 0 74.666667h124.373333a37.333333 37.333333 0 0 0 0-74.666667zM368.853333 315.306667h-124.373333a37.333333 37.333333 0 0 0 0 74.666666h124.373333a37.333333 37.333333 0 0 0 0-74.666666zM779.52 520.533333h-124.373333a37.333333 37.333333 0 0 0 0 74.666667h124.373333a37.333333 37.333333 0 0 0 0-74.666667zM779.52 315.306667h-124.373333a37.333333 37.333333 0 0 0 0 74.666666h124.373333a37.333333 37.333333 0 0 0 0-74.666666z"  /></svg>