<?xml version="1.0" standalone="no"?><!DOCTYPE svg PUBLIC "-//W3C//DTD SVG 1.1//EN" "http://www.w3.org/Graphics/SVG/1.1/DTD/svg11.dtd"><svg class="icon" width="200px" height="200.00px" viewBox="0 0 1024 1024" version="1.1" xmlns="http://www.w3.org/2000/svg"><path fill="#333333" d="M922.666667 64H101.333333A37.333333 37.333333 0 0 0 64 101.333333v821.333334A37.333333 37.333333 0 0 0 101.333333 960h821.333334A37.333333 37.333333 0 0 0 960 922.666667V101.333333A37.333333 37.333333 0 0 0 922.666667 64zM706.346667 138.666667v365.44l-54.186667-36.266667a37.546667 37.546667 0 0 0-41.6 0l-53.546667 36.053333V138.666667zM138.666667 138.666667h130.56v746.666666H138.666667z m746.666666 746.666666H343.893333v-746.666666h138.453334v435.626666a37.12 37.12 0 0 0 19.626666 32.853334 37.546667 37.546667 0 0 0 38.4-1.92l91.093334-61.226667 91.306666 61.226667a37.333333 37.333333 0 0 0 58.24-30.933334V138.666667h104.32z" /></svg>