<?xml version="1.0" standalone="no"?><!DOCTYPE svg PUBLIC "-//W3C//DTD SVG 1.1//EN" "http://www.w3.org/Graphics/SVG/1.1/DTD/svg11.dtd"><svg class="icon" width="200px" height="200.00px" viewBox="0 0 1024 1024" version="1.1" xmlns="http://www.w3.org/2000/svg"><path fill="#333333" d="M474.88 277.333333h220.373333a35.2 35.2 0 0 0 0-70.4H474.88a35.2 35.2 0 0 0 0 70.4zM474.88 448h220.373333a35.2 35.2 0 0 0 0-70.4H474.88a35.2 35.2 0 0 0 0 70.4z"  /><path fill="#333333" d="M899.2 579.84h-40.533333V77.866667A35.2 35.2 0 0 0 823.466667 42.666667H346.453333a35.2 35.2 0 0 0-35.2 35.2v73.813333H189.013333a35.2 35.2 0 0 0-35.2 35.2v392.96H124.8a35.2 35.2 0 0 0-35.2 35.2v331.093333A35.2 35.2 0 0 0 124.8 981.333333h774.4a35.2 35.2 0 0 0 35.2-35.2V615.04a35.2 35.2 0 0 0-35.2-35.2zM789.333333 113.066667v466.773333h-170.666666a35.2 35.2 0 0 0-35.2 35.2v114.986667h-141.653334v-114.986667a35.2 35.2 0 0 0-35.2-35.2h-24.96V113.066667z m-565.12 109.013333h87.04v357.76h-87.04z m640 688.853333H160V650.24h211.413333v114.986667a35.2 35.2 0 0 0 35.2 35.2h210.56a35.2 35.2 0 0 0 35.2-35.2v-114.986667h211.626667z"  /></svg>