<?xml version="1.0" standalone="no"?><!DOCTYPE svg PUBLIC "-//W3C//DTD SVG 1.1//EN" "http://www.w3.org/Graphics/SVG/1.1/DTD/svg11.dtd"><svg class="icon" width="200px" height="200.00px" viewBox="0 0 1024 1024" version="1.1" xmlns="http://www.w3.org/2000/svg"><path fill="#333333" d="M424.96 412.373333H101.333333A37.333333 37.333333 0 0 1 64 375.04V101.333333A37.333333 37.333333 0 0 1 101.333333 64h323.626667a37.333333 37.333333 0 0 1 37.333333 37.333333v273.706667a37.333333 37.333333 0 0 1-37.333333 37.333333zM138.666667 337.706667h248.96V138.666667H138.666667zM922.666667 412.373333H599.04a37.333333 37.333333 0 0 1-37.333333-37.333333V101.333333A37.333333 37.333333 0 0 1 599.04 64h323.626667A37.333333 37.333333 0 0 1 960 101.333333v273.706667a37.333333 37.333333 0 0 1-37.333333 37.333333z m-286.293334-74.666666H885.333333V138.666667H636.373333zM424.96 586.666667H101.333333a37.333333 37.333333 0 0 1 0-74.666667h323.626667a37.333333 37.333333 0 0 1 0 74.666667zM424.96 773.333333H101.333333a37.333333 37.333333 0 0 1 0-74.666666h323.626667a37.333333 37.333333 0 0 1 0 74.666666zM424.96 960H101.333333a37.333333 37.333333 0 0 1 0-74.666667h323.626667a37.333333 37.333333 0 0 1 0 74.666667zM922.666667 586.666667H599.04a37.333333 37.333333 0 0 1 0-74.666667h323.626667a37.333333 37.333333 0 0 1 0 74.666667zM922.666667 773.333333H599.04a37.333333 37.333333 0 0 1 0-74.666666h323.626667a37.333333 37.333333 0 0 1 0 74.666666zM922.666667 960H599.04a37.333333 37.333333 0 0 1 0-74.666667h323.626667a37.333333 37.333333 0 0 1 0 74.666667z" /></svg>