<?xml version="1.0" standalone="no"?><!DOCTYPE svg PUBLIC "-//W3C//DTD SVG 1.1//EN" "http://www.w3.org/Graphics/SVG/1.1/DTD/svg11.dtd"><svg class="icon" width="200px" height="200.00px" viewBox="0 0 1024 1024" version="1.1" xmlns="http://www.w3.org/2000/svg"><path fill="#333333" d="M350.293333 438.4h-124.586666a37.333333 37.333333 0 0 1 0-74.666667h124.586666a37.333333 37.333333 0 0 1 0 74.666667zM350.293333 625.066667h-124.586666a37.333333 37.333333 0 0 1 0-74.666667h124.586666a37.333333 37.333333 0 0 1 0 74.666667zM350.293333 811.733333h-124.586666a37.333333 37.333333 0 1 1 0-74.666666h124.586666a37.333333 37.333333 0 0 1 0 74.666666zM922.666667 462.293333H599.04a37.546667 37.546667 0 0 1-37.333333-37.333333V101.333333A37.333333 37.333333 0 0 1 599.04 64h323.626667A37.333333 37.333333 0 0 1 960 101.333333v323.626667a37.333333 37.333333 0 0 1-37.333333 37.333333z m-286.293334-74.666666H885.333333V138.666667H636.373333zM922.666667 960H599.04a37.333333 37.333333 0 0 1-37.333333-37.333333V599.04a37.546667 37.546667 0 0 1 37.333333-37.333333h323.626667A37.333333 37.333333 0 0 1 960 599.04v323.626667A37.333333 37.333333 0 0 1 922.666667 960z m-286.293334-74.666667H885.333333V636.373333H636.373333z"  /><path fill="#333333" d="M474.666667 960H101.333333A37.333333 37.333333 0 0 1 64 922.666667V101.333333A37.333333 37.333333 0 0 1 101.333333 64h373.333334A37.333333 37.333333 0 0 1 512 101.333333v821.333334A37.333333 37.333333 0 0 1 474.666667 960zM138.666667 885.333333h298.666666v-746.666666h-298.666666z"  /></svg>