<?xml version="1.0" standalone="no"?><!DOCTYPE svg PUBLIC "-//W3C//DTD SVG 1.1//EN" "http://www.w3.org/Graphics/SVG/1.1/DTD/svg11.dtd"><svg class="icon" width="200px" height="200.00px" viewBox="0 0 1024 1024" version="1.1" xmlns="http://www.w3.org/2000/svg"><path fill="#333333" d="M857.386667 161.28l-332.373334-138.666667h-4.693333a54.4 54.4 0 0 0-16.64 0h-4.693333L166.826667 161.28a61.866667 61.866667 0 0 0-47.36 60.16v289.066667a480.853333 480.853333 0 0 0 247.253333 420.48l115.626667 64a61.013333 61.013333 0 0 0 59.306666 0l115.626667-64A480.853333 480.853333 0 0 0 904.533333 510.506667V221.44a61.866667 61.866667 0 0 0-47.146666-60.16zM832 510.506667a407.04 407.04 0 0 1-209.28 356.053333L512 927.36l-109.653333-60.8a407.04 407.04 0 0 1-209.28-356.053333V229.973333L512 96.853333l320 133.12z"  /><path fill="#333333" d="M512 628.053333A116.053333 116.053333 0 1 0 395.946667 512 116.266667 116.266667 0 0 0 512 628.053333z m0-170.666666A54.826667 54.826667 0 1 1 457.173333 512 54.826667 54.826667 0 0 1 512 457.173333z"  /><path fill="#333333" d="M424.96 271.36l-6.826667 50.133333a208.853333 208.853333 0 0 0-34.346666 21.333334l-42.666667-17.066667a30.72 30.72 0 0 0-38.186667 13.226667L252.373333 426.666667a30.933333 30.933333 0 0 0 7.68 39.68L298.666667 497.28v16a215.466667 215.466667 0 0 0 1.493333 26.026667l-34.56 26.88a30.72 30.72 0 0 0-7.893333 39.68l51.2 88.746666a30.933333 30.933333 0 0 0 38.186666 13.013334l44.8-18.133334a218.453333 218.453333 0 0 0 37.973334 21.333334l5.76 42.666666a30.72 30.72 0 0 0 30.506666 26.453334h102.613334a30.506667 30.506667 0 0 0 30.293333-26.453334l6.613333-49.493333a207.786667 207.786667 0 0 0 36.48-21.333333l40.106667 16.213333a30.933333 30.933333 0 0 0 38.186667-13.013333l51.2-88.533334a30.933333 30.933333 0 0 0-7.68-39.68L725.333333 526.72v-13.44a243.413333 243.413333 0 0 0-1.706666-28.16l34.986666-27.093333a30.72 30.72 0 0 0 7.68-39.68l-51.413333-88.96a30.506667 30.506667 0 0 0-37.973333-13.013334l-46.72 18.986667a211.626667 211.626667 0 0 0-35.626667-18.986667l-6.186667-45.013333a30.506667 30.506667 0 0 0-30.293333-26.453333h-102.826667a30.506667 30.506667 0 0 0-30.293333 26.453333z m51.413333 75.52l5.76-40.533333h49.28l4.906667 36.693333a30.293333 30.293333 0 0 0 21.333333 24.96 159.146667 159.146667 0 0 1 49.28 26.24 30.72 30.72 0 0 0 30.72 4.266667l37.546667-14.506667 24.746667 42.666667-28.8 21.333333a30.293333 30.293333 0 0 0-9.813334 31.36 146.346667 146.346667 0 0 1 3.84 33.92 159.573333 159.573333 0 0 1-1.706666 22.826667 30.72 30.72 0 0 0 11.52 28.586666l31.146666 24.32-24.533333 42.666667-33.493333-13.013333a30.72 30.72 0 0 0-32.213334 5.76 153.6 153.6 0 0 1-49.493333 30.933333 30.506667 30.506667 0 0 0-19.2 24.533333l-5.333333 37.973334h-49.066667L488.106667 682.666667a30.506667 30.506667 0 0 0-21.333334-25.386667 147.626667 147.626667 0 0 1-50.986666-27.306667 30.506667 30.506667 0 0 0-31.786667-3.84l-35.2 13.866667-24.533333-42.666667 27.946666-21.333333a30.933333 30.933333 0 0 0 10.453334-30.293333 151.04 151.04 0 0 1-3.626667-32.426667 154.453333 154.453333 0 0 1 3.626667-24.533333 30.72 30.72 0 0 0-11.306667-29.226667L320 434.986667l24.533333-42.666667 34.133334 13.866667a30.506667 30.506667 0 0 0 32-5.76 158.08 158.08 0 0 1 47.573333-29.44 30.506667 30.506667 0 0 0 18.133333-24.106667z"  /></svg>