<?xml version="1.0" standalone="no"?><!DOCTYPE svg PUBLIC "-//W3C//DTD SVG 1.1//EN" "http://www.w3.org/Graphics/SVG/1.1/DTD/svg11.dtd"><svg t="1612259123247" class="icon" viewBox="0 0 1024 1024" version="1.1" xmlns="http://www.w3.org/2000/svg" p-id="1573" xmlns:xlink="http://www.w3.org/1999/xlink" width="200" height="200"><defs><style type="text/css"></style></defs><path d="M965.973333 119.466667H58.24A36.693333 36.693333 0 0 0 21.333333 156.16v711.466667a36.693333 36.693333 0 0 0 36.906667 36.906666h907.733333A36.693333 36.693333 0 0 0 1002.666667 867.626667V156.16a36.693333 36.693333 0 0 0-36.693334-36.693333zM929.066667 832H94.933333V193.066667h834.133334z" p-id="1574"></path><path d="M512 781.866667a269.653333 269.653333 0 0 0 192-459.946667 269.866667 269.866667 0 1 0-192 459.946667z m0-466.133334a196.48 196.48 0 0 1 110.293333 33.92l-136.32 136.32a36.906667 36.906667 0 0 0 0 52.053334 37.12 37.12 0 0 0 52.053334 0l136.32-136.32a196.266667 196.266667 0 1 1-162.346667-85.333334z" p-id="1575"></path></svg>